# 3ds Max Wavefront OBJ Exporter v0.97b - (c)2007 guruware
# 创建的文件:30.08.2022 14:50:34

mtllib huan2.mtl

#
# object Cylinder001
#

v  27.7657 0.0000 -0.0695
v  27.4891 0.0000 -3.9367
v  27.4891 1.6201 -3.9367
v  27.7657 1.6201 -0.0695
v  26.6650 0.0000 -7.7252
v  26.6650 1.6201 -7.7252
v  25.3100 0.0000 -11.3579
v  25.3100 1.6201 -11.3579
v  23.4520 0.0000 -14.7607
v  23.4520 1.6201 -14.7607
v  21.1285 0.0000 -17.8645
v  21.1285 1.6201 -17.8645
v  18.3870 0.0000 -20.6060
v  18.3870 1.6201 -20.6060
v  15.2832 0.0000 -22.9295
v  15.2832 1.6201 -22.9295
v  11.8804 0.0000 -24.7876
v  11.8804 1.6201 -24.7876
v  8.2477 0.0000 -26.1425
v  8.2477 1.6201 -26.1425
v  4.4592 0.0000 -26.9666
v  4.4592 1.6201 -26.9666
v  0.5920 0.0000 -27.2432
v  0.5920 1.6201 -27.2432
v  -3.2752 0.0000 -26.9666
v  -3.2752 1.6201 -26.9666
v  -7.0637 0.0000 -26.1425
v  -7.0637 1.6201 -26.1425
v  -10.6964 0.0000 -24.7876
v  -10.6964 1.6201 -24.7876
v  -14.0992 0.0000 -22.9295
v  -14.0992 1.6201 -22.9295
v  -17.2030 0.0000 -20.6060
v  -17.2030 1.6201 -20.6060
v  -19.9445 0.0000 -17.8645
v  -19.9445 1.6201 -17.8645
v  -22.2679 0.0000 -14.7607
v  -22.2679 1.6201 -14.7607
v  -24.1260 0.0000 -11.3579
v  -24.1260 1.6201 -11.3579
v  -25.4810 0.0000 -7.7252
v  -25.4810 1.6201 -7.7252
v  -26.3051 0.0000 -3.9367
v  -26.3051 1.6201 -3.9367
v  -26.5817 0.0000 -0.0695
v  -26.5817 1.6201 -0.0695
v  -26.3051 0.0000 3.7977
v  -26.3051 1.6201 3.7977
v  -25.4810 0.0000 7.5862
v  -25.4810 1.6201 7.5862
v  -24.1261 0.0000 11.2188
v  -24.1261 1.6201 11.2188
v  -22.2680 0.0000 14.6217
v  -22.2680 1.6201 14.6217
v  -19.9445 0.0000 17.7255
v  -19.9445 1.6201 17.7255
v  -17.2030 0.0000 20.4670
v  -17.2030 1.6201 20.4670
v  -14.0992 0.0000 22.7904
v  -14.0992 1.6201 22.7904
v  -10.6964 0.0000 24.6485
v  -10.6964 1.6201 24.6485
v  -7.0637 0.0000 26.0034
v  -7.0637 1.6201 26.0034
v  -3.2752 0.0000 26.8276
v  -3.2752 1.6201 26.8276
v  0.5920 0.0000 27.1042
v  0.5920 1.6201 27.1042
v  4.4592 0.0000 26.8276
v  4.4592 1.6201 26.8276
v  8.2477 0.0000 26.0034
v  8.2477 1.6201 26.0034
v  11.8804 0.0000 24.6485
v  11.8804 1.6201 24.6485
v  15.2832 0.0000 22.7904
v  15.2832 1.6201 22.7904
v  18.3870 0.0000 20.4670
v  18.3870 1.6201 20.4670
v  21.1285 0.0000 17.7254
v  21.1285 1.6201 17.7254
v  23.4520 0.0000 14.6217
v  23.4520 1.6201 14.6217
v  25.3101 0.0000 11.2188
v  25.3101 1.6201 11.2188
v  26.6650 0.0000 7.5862
v  26.6650 1.6201 7.5862
v  27.4891 0.0000 3.7977
v  27.4891 1.6201 3.7977
v  24.4043 0.0276 -0.0695
v  24.1620 0.0276 -3.4584
v  24.1620 0.0276 3.3193
v  23.4398 0.0276 6.6392
v  22.2525 0.0276 9.8225
v  20.6242 0.0276 12.8044
v  18.5882 0.0276 15.5242
v  16.1858 0.0276 17.9266
v  13.4659 0.0276 19.9627
v  10.4840 0.0276 21.5909
v  7.3007 0.0276 22.7783
v  3.9809 0.0276 23.5005
v  0.5920 0.0276 23.7428
v  -2.7969 0.0276 23.5005
v  -6.1167 0.0276 22.7783
v  -9.3000 0.0276 21.5909
v  -12.2819 0.0276 19.9627
v  -15.0018 0.0276 17.9266
v  -17.4042 0.0276 15.5242
v  -19.4402 0.0276 12.8044
v  -21.0685 0.0276 9.8225
v  -22.2558 0.0276 6.6392
v  -22.9780 0.0276 3.3193
v  -23.2203 0.0276 -0.0695
v  -22.9780 0.0276 -3.4584
v  -22.2558 0.0276 -6.7782
v  -21.0685 0.0276 -9.9615
v  -19.4402 0.0276 -12.9434
v  -17.4042 0.0276 -15.6633
v  -15.0018 0.0276 -18.0657
v  -12.2819 0.0276 -20.1017
v  -9.3000 0.0276 -21.7300
v  -6.1167 0.0276 -22.9173
v  -2.7968 0.0276 -23.6395
v  0.5920 0.0276 -23.8818
v  3.9808 0.0276 -23.6395
v  7.3007 0.0276 -22.9173
v  10.4840 0.0276 -21.7300
v  13.4659 0.0276 -20.1017
v  16.1858 0.0276 -18.0657
v  18.5882 0.0276 -15.6633
v  20.6242 0.0276 -12.9434
v  22.2525 0.0276 -9.9615
v  23.4398 0.0276 -6.7782
v  24.1620 1.6201 -3.4584
v  24.4043 1.6201 -0.0695
v  23.4398 1.6201 -6.7782
v  22.2525 1.6201 -9.9615
v  20.6242 1.6201 -12.9434
v  18.5882 1.6201 -15.6633
v  16.1858 1.6201 -18.0657
v  13.4659 1.6201 -20.1017
v  10.4840 1.6201 -21.7300
v  7.3007 1.6201 -22.9173
v  3.9808 1.6201 -23.6395
v  0.5920 1.6201 -23.8818
v  -2.7968 1.6201 -23.6395
v  -6.1167 1.6201 -22.9173
v  -9.3000 1.6201 -21.7300
v  -12.2819 1.6201 -20.1017
v  -15.0018 1.6201 -18.0657
v  -17.4042 1.6201 -15.6633
v  -19.4402 1.6201 -12.9434
v  -21.0685 1.6201 -9.9615
v  -22.2558 1.6201 -6.7782
v  -22.9780 1.6201 -3.4584
v  -23.2203 1.6201 -0.0695
v  -22.9780 1.6201 3.3193
v  -22.2558 1.6201 6.6392
v  -21.0685 1.6201 9.8225
v  -19.4402 1.6201 12.8044
v  -17.4042 1.6201 15.5242
v  -15.0018 1.6201 17.9266
v  -12.2819 1.6201 19.9627
v  -9.3000 1.6201 21.5909
v  -6.1167 1.6201 22.7783
v  -2.7969 1.6201 23.5005
v  0.5920 1.6201 23.7428
v  3.9809 1.6201 23.5005
v  7.3007 1.6201 22.7783
v  10.4840 1.6201 21.5909
v  13.4659 1.6201 19.9627
v  16.1858 1.6201 17.9266
v  18.5882 1.6201 15.5242
v  20.6242 1.6201 12.8044
v  22.2525 1.6201 9.8225
v  23.4398 1.6201 6.6392
v  24.1620 1.6201 3.3193
# 176 vertices

vn 1.0000 0.0000 -0.0000
vn 0.9898 0.0000 -0.1423
vn 0.9595 0.0000 -0.2817
vn 0.9096 0.0000 -0.4154
vn 0.8413 0.0000 -0.5406
vn 0.7557 0.0000 -0.6549
vn 0.6549 0.0000 -0.7557
vn 0.5406 0.0000 -0.8413
vn 0.4154 0.0000 -0.9096
vn 0.2817 0.0000 -0.9595
vn 0.1423 0.0000 -0.9898
vn 0.0000 0.0000 -1.0000
vn -0.1423 0.0000 -0.9898
vn -0.2817 0.0000 -0.9595
vn -0.4154 0.0000 -0.9096
vn -0.5406 0.0000 -0.8413
vn -0.6549 0.0000 -0.7557
vn -0.7557 0.0000 -0.6549
vn -0.8413 0.0000 -0.5406
vn -0.9096 0.0000 -0.4154
vn -0.9595 0.0000 -0.2817
vn -0.9898 0.0000 -0.1423
vn -1.0000 0.0000 -0.0000
vn -0.9898 0.0000 0.1423
vn -0.9595 0.0000 0.2817
vn -0.9096 0.0000 0.4154
vn -0.8413 0.0000 0.5406
vn -0.7558 0.0000 0.6549
vn -0.6549 0.0000 0.7557
vn -0.5406 0.0000 0.8413
vn -0.4154 0.0000 0.9096
vn -0.2817 0.0000 0.9595
vn -0.1423 0.0000 0.9898
vn 0.0000 0.0000 1.0000
vn 0.1423 0.0000 0.9898
vn 0.2817 0.0000 0.9595
vn 0.4154 0.0000 0.9096
vn 0.5406 0.0000 0.8413
vn 0.6549 0.0000 0.7557
vn 0.7558 0.0000 0.6549
vn 0.8413 0.0000 0.5406
vn 0.9096 0.0000 0.4154
vn 0.9595 0.0000 0.2817
vn 0.9898 0.0000 0.1423
vn -0.0081 -1.0000 0.0012
vn -0.0082 -1.0000 0.0000
vn -0.0081 -1.0000 -0.0012
vn -0.0079 -1.0000 -0.0023
vn -0.0075 -1.0000 -0.0034
vn -0.0069 -1.0000 -0.0044
vn -0.0062 -1.0000 -0.0054
vn -0.0054 -1.0000 -0.0062
vn -0.0044 -1.0000 -0.0069
vn -0.0034 -1.0000 -0.0075
vn -0.0023 -1.0000 -0.0079
vn -0.0012 -1.0000 -0.0081
vn -0.0000 -1.0000 -0.0082
vn 0.0012 -1.0000 -0.0081
vn 0.0023 -1.0000 -0.0079
vn 0.0034 -1.0000 -0.0075
vn 0.0044 -1.0000 -0.0069
vn 0.0054 -1.0000 -0.0062
vn 0.0062 -1.0000 -0.0054
vn 0.0069 -1.0000 -0.0044
vn 0.0075 -1.0000 -0.0034
vn 0.0079 -1.0000 -0.0023
vn 0.0081 -1.0000 -0.0012
vn 0.0082 -1.0000 0.0000
vn 0.0081 -1.0000 0.0012
vn 0.0079 -1.0000 0.0023
vn 0.0075 -1.0000 0.0034
vn 0.0069 -1.0000 0.0044
vn 0.0062 -1.0000 0.0054
vn 0.0054 -1.0000 0.0062
vn 0.0044 -1.0000 0.0069
vn 0.0034 -1.0000 0.0075
vn 0.0023 -1.0000 0.0079
vn 0.0012 -1.0000 0.0081
vn 0.0000 -1.0000 0.0082
vn -0.0012 -1.0000 0.0081
vn -0.0023 -1.0000 0.0079
vn -0.0034 -1.0000 0.0075
vn -0.0044 -1.0000 0.0069
vn -0.0054 -1.0000 0.0062
vn -0.0062 -1.0000 0.0054
vn -0.0069 -1.0000 0.0044
vn -0.0075 -1.0000 0.0034
vn -0.0079 -1.0000 0.0023
vn 0.0000 1.0000 -0.0000
vn -1.0000 -0.0000 0.0000
vn -1.0000 0.0000 0.0000
vn -0.7557 0.0000 0.6549
vn -0.1423 -0.0000 0.9898
vn -0.0000 -0.0000 1.0000
vn -0.0000 0.0000 1.0000
vn 0.6549 -0.0000 0.7557
vn 0.7557 -0.0000 0.6549
vn 0.8413 -0.0000 0.5406
vn 0.9898 -0.0000 0.1423
vn 1.0000 -0.0000 0.0000
vn 1.0000 0.0000 0.0000
vn 0.7558 0.0000 -0.6549
vn 0.5406 -0.0000 -0.8413
vn 0.4154 -0.0000 -0.9096
vn 0.2817 -0.0000 -0.9595
vn 0.1423 -0.0000 -0.9898
vn -0.0000 -0.0000 -1.0000
vn -0.4154 -0.0000 -0.9096
vn -0.5406 -0.0000 -0.8413
vn -0.6549 -0.0000 -0.7557
vn -0.7558 0.0000 -0.6549
vn -0.9898 -0.0000 -0.1423
# 112 vertex normals

vt 0.7500 0.0000 1.0000
vt 0.7727 0.0000 1.0000
vt 0.7727 1.0000 1.0000
vt 0.7500 1.0000 1.0000
vt 0.7955 0.0000 1.0000
vt 0.7955 1.0000 1.0000
vt 0.8182 0.0000 1.0000
vt 0.8182 1.0000 1.0000
vt 0.8409 0.0000 1.0000
vt 0.8409 1.0000 1.0000
vt 0.8636 0.0000 1.0000
vt 0.8636 1.0000 1.0000
vt 0.8864 0.0000 1.0000
vt 0.8864 1.0000 1.0000
vt 0.9091 0.0000 1.0000
vt 0.9091 1.0000 1.0000
vt 0.9318 0.0000 1.0000
vt 0.9318 1.0000 1.0000
vt 0.9545 0.0000 1.0000
vt 0.9545 1.0000 1.0000
vt 0.9773 0.0000 1.0000
vt 0.9773 1.0000 1.0000
vt 1.0000 0.0000 1.0000
vt 1.0000 1.0000 1.0000
vt 1.0227 0.0000 1.0000
vt 1.0227 1.0000 1.0000
vt 0.0227 0.0000 1.0000
vt 0.0455 0.0000 1.0000
vt 0.0455 1.0000 1.0000
vt 0.0227 1.0000 1.0000
vt 0.0682 0.0000 1.0000
vt 0.0682 1.0000 1.0000
vt 0.0909 0.0000 1.0000
vt 0.0909 1.0000 1.0000
vt 0.1136 0.0000 1.0000
vt 0.1136 1.0000 1.0000
vt 0.1364 0.0000 1.0000
vt 0.1364 1.0000 1.0000
vt 0.1591 0.0000 1.0000
vt 0.1591 1.0000 1.0000
vt 0.1818 0.0000 1.0000
vt 0.1818 1.0000 1.0000
vt 0.2045 0.0000 1.0000
vt 0.2045 1.0000 1.0000
vt 0.2273 0.0000 1.0000
vt 0.2273 1.0000 1.0000
vt 0.2500 0.0000 1.0000
vt 0.2500 1.0000 1.0000
vt 0.2727 0.0000 1.0000
vt 0.2727 1.0000 1.0000
vt 0.2955 0.0000 1.0000
vt 0.2955 1.0000 1.0000
vt 0.3182 0.0000 1.0000
vt 0.3182 1.0000 1.0000
vt 0.3409 0.0000 1.0000
vt 0.3409 1.0000 1.0000
vt 0.3636 0.0000 1.0000
vt 0.3636 1.0000 1.0000
vt 0.3864 0.0000 1.0000
vt 0.3864 1.0000 1.0000
vt 0.4091 0.0000 1.0000
vt 0.4091 1.0000 1.0000
vt 0.4318 0.0000 1.0000
vt 0.4318 1.0000 1.0000
vt 0.4545 0.0000 1.0000
vt 0.4545 1.0000 1.0000
vt 0.4773 0.0000 1.0000
vt 0.4773 1.0000 1.0000
vt 0.5000 0.0000 1.0000
vt 0.5000 1.0000 1.0000
vt 0.5227 0.0000 1.0000
vt 0.5227 1.0000 1.0000
vt 0.5455 0.0000 1.0000
vt 0.5455 1.0000 1.0000
vt 0.5682 0.0000 1.0000
vt 0.5682 1.0000 1.0000
vt 0.5909 0.0000 1.0000
vt 0.5909 1.0000 1.0000
vt 0.6136 0.0000 1.0000
vt 0.6136 1.0000 1.0000
vt 0.6364 0.0000 1.0000
vt 0.6364 1.0000 1.0000
vt 0.6591 0.0000 1.0000
vt 0.6591 1.0000 1.0000
vt 0.6818 0.0000 1.0000
vt 0.6818 1.0000 1.0000
vt 0.7045 0.0000 1.0000
vt 0.7045 1.0000 1.0000
vt 0.7273 0.0000 1.0000
vt 0.7273 1.0000 1.0000
vt 0.4288 0.9949 -0.2500
vt 0.5000 1.0000 -0.2500
vt 0.5712 0.9949 -0.2500
vt 0.6409 0.9797 -0.2500
vt 0.7077 0.9548 -0.2500
vt 0.7703 0.9206 -0.2500
vt 0.8274 0.8779 -0.2500
vt 0.8779 0.8274 -0.2500
vt 0.9206 0.7703 -0.2500
vt 0.9548 0.7077 -0.2500
vt 0.9797 0.6409 -0.2500
vt 0.9949 0.5712 -0.2500
vt 1.0000 0.5000 -0.2500
vt 0.9949 0.4288 -0.2500
vt 0.9797 0.3591 -0.2500
vt 0.9548 0.2923 -0.2500
vt 0.9206 0.2297 -0.2500
vt 0.8779 0.1726 -0.2500
vt 0.8274 0.1221 -0.2500
vt 0.7703 0.0794 -0.2500
vt 0.7077 0.0452 -0.2500
vt 0.6409 0.0203 -0.2500
vt 0.5712 0.0051 -0.2500
vt 0.5000 0.0000 -0.2500
vt 0.4288 0.0051 -0.2500
vt 0.3591 0.0203 -0.2500
vt 0.2923 0.0452 -0.2500
vt 0.2297 0.0794 -0.2500
vt 0.1726 0.1221 -0.2500
vt 0.1221 0.1726 -0.2500
vt 0.0794 0.2297 -0.2500
vt 0.0452 0.2923 -0.2500
vt 0.0203 0.3591 -0.2500
vt 0.0051 0.4288 -0.2500
vt 0.0000 0.5000 -0.2500
vt 0.0051 0.5712 -0.2500
vt 0.0203 0.6409 -0.2500
vt 0.0452 0.7077 -0.2500
vt 0.0794 0.7703 -0.2500
vt 0.1221 0.8274 -0.2500
vt 0.1726 0.8779 -0.2500
vt 0.2297 0.9206 -0.2500
vt 0.2923 0.9548 -0.2500
vt 0.3591 0.9797 -0.2500
vt 0.5000 1.0000 0.2500
vt 0.4288 0.9949 0.2500
vt 0.3591 0.9797 0.2500
vt 0.2923 0.9548 0.2500
vt 0.2297 0.9206 0.2500
vt 0.1726 0.8779 0.2500
vt 0.1221 0.8274 0.2500
vt 0.0794 0.7703 0.2500
vt 0.0452 0.7077 0.2500
vt 0.0203 0.6409 0.2500
vt 0.0051 0.5712 0.2500
vt 0.0000 0.5000 0.2500
vt 0.0051 0.4288 0.2500
vt 0.0203 0.3591 0.2500
vt 0.0452 0.2923 0.2500
vt 0.0794 0.2297 0.2500
vt 0.1221 0.1726 0.2500
vt 0.1726 0.1221 0.2500
vt 0.2297 0.0794 0.2500
vt 0.2923 0.0452 0.2500
vt 0.3591 0.0203 0.2500
vt 0.4288 0.0051 0.2500
vt 0.5000 0.0000 0.2500
vt 0.5712 0.0051 0.2500
vt 0.6409 0.0203 0.2500
vt 0.7077 0.0452 0.2500
vt 0.7703 0.0794 0.2500
vt 0.8274 0.1221 0.2500
vt 0.8779 0.1726 0.2500
vt 0.9206 0.2297 0.2500
vt 0.9548 0.2923 0.2500
vt 0.9797 0.3591 0.2500
vt 0.9949 0.4288 0.2500
vt 1.0000 0.5000 0.2500
vt 0.9949 0.5712 0.2500
vt 0.9797 0.6409 0.2500
vt 0.9548 0.7077 0.2500
vt 0.9206 0.7703 0.2500
vt 0.8779 0.8274 0.2500
vt 0.8274 0.8779 0.2500
vt 0.7703 0.9206 0.2500
vt 0.7077 0.9548 0.2500
vt 0.6409 0.9797 0.2500
vt 0.5712 0.9949 0.2500
# 178 texture coords

g Cylinder001
usemtl wire_115115115
s 1
f 1/1/1 2/2/2 3/3/2 4/4/1 
f 2/2/2 5/5/3 6/6/3 3/3/2 
f 5/5/3 7/7/4 8/8/4 6/6/3 
f 7/7/4 9/9/5 10/10/5 8/8/4 
f 9/9/5 11/11/6 12/12/6 10/10/5 
f 11/11/6 13/13/7 14/14/7 12/12/6 
f 13/13/7 15/15/8 16/16/8 14/14/7 
f 15/15/8 17/17/9 18/18/9 16/16/8 
f 17/17/9 19/19/10 20/20/10 18/18/9 
f 19/19/10 21/21/11 22/22/11 20/20/10 
f 21/21/11 23/23/12 24/24/12 22/22/11 
f 23/23/12 25/25/13 26/26/13 24/24/12 
f 25/27/13 27/28/14 28/29/14 26/30/13 
f 27/28/14 29/31/15 30/32/15 28/29/14 
f 29/31/15 31/33/16 32/34/16 30/32/15 
f 31/33/16 33/35/17 34/36/17 32/34/16 
f 33/35/17 35/37/18 36/38/18 34/36/17 
f 35/37/18 37/39/19 38/40/19 36/38/18 
f 37/39/19 39/41/20 40/42/20 38/40/19 
f 39/41/20 41/43/21 42/44/21 40/42/20 
f 41/43/21 43/45/22 44/46/22 42/44/21 
f 43/45/22 45/47/23 46/48/23 44/46/22 
f 45/47/23 47/49/24 48/50/24 46/48/23 
f 47/49/24 49/51/25 50/52/25 48/50/24 
f 49/51/25 51/53/26 52/54/26 50/52/25 
f 51/53/26 53/55/27 54/56/27 52/54/26 
f 53/55/27 55/57/28 56/58/28 54/56/27 
f 55/57/28 57/59/29 58/60/29 56/58/28 
f 57/59/29 59/61/30 60/62/30 58/60/29 
f 59/61/30 61/63/31 62/64/31 60/62/30 
f 61/63/31 63/65/32 64/66/32 62/64/31 
f 63/65/32 65/67/33 66/68/33 64/66/32 
f 65/67/33 67/69/34 68/70/34 66/68/33 
f 67/69/34 69/71/35 70/72/35 68/70/34 
f 69/71/35 71/73/36 72/74/36 70/72/35 
f 71/73/36 73/75/37 74/76/37 72/74/36 
f 73/75/37 75/77/38 76/78/38 74/76/37 
f 75/77/38 77/79/39 78/80/39 76/78/38 
f 77/79/39 79/81/40 80/82/40 78/80/39 
f 79/81/40 81/83/41 82/84/41 80/82/40 
f 81/83/41 83/85/42 84/86/42 82/84/41 
f 83/85/42 85/87/43 86/88/43 84/86/42 
f 85/87/43 87/89/44 88/90/44 86/88/43 
f 87/89/44 1/1/1 4/4/1 88/90/44 
s 2
f 2/91/45 1/92/46 89/92/46 90/91/45 
f 1/92/46 87/93/47 91/93/47 89/92/46 
f 87/93/47 85/94/48 92/94/48 91/93/47 
f 85/94/48 83/95/49 93/95/49 92/94/48 
f 83/95/49 81/96/50 94/96/50 93/95/49 
f 81/96/50 79/97/51 95/97/51 94/96/50 
f 79/97/51 77/98/52 96/98/52 95/97/51 
f 77/98/52 75/99/53 97/99/53 96/98/52 
f 75/99/53 73/100/54 98/100/54 97/99/53 
f 73/100/54 71/101/55 99/101/55 98/100/54 
f 71/101/55 69/102/56 100/102/56 99/101/55 
f 69/102/56 67/103/57 101/103/57 100/102/56 
f 67/103/57 65/104/58 102/104/58 101/103/57 
f 65/104/58 63/105/59 103/105/59 102/104/58 
f 63/105/59 61/106/60 104/106/60 103/105/59 
f 61/106/60 59/107/61 105/107/61 104/106/60 
f 59/107/61 57/108/62 106/108/62 105/107/61 
f 57/108/62 55/109/63 107/109/63 106/108/62 
f 55/109/63 53/110/64 108/110/64 107/109/63 
f 53/110/64 51/111/65 109/111/65 108/110/64 
f 51/111/65 49/112/66 110/112/66 109/111/65 
f 49/112/66 47/113/67 111/113/67 110/112/66 
f 47/113/67 45/114/68 112/114/68 111/113/67 
f 45/114/68 43/115/69 113/115/69 112/114/68 
f 43/115/69 41/116/70 114/116/70 113/115/69 
f 41/116/70 39/117/71 115/117/71 114/116/70 
f 39/117/71 37/118/72 116/118/72 115/117/71 
f 37/118/72 35/119/73 117/119/73 116/118/72 
f 35/119/73 33/120/74 118/120/74 117/119/73 
f 33/120/74 31/121/75 119/121/75 118/120/74 
f 31/121/75 29/122/76 120/122/76 119/121/75 
f 29/122/76 27/123/77 121/123/77 120/122/76 
f 27/123/77 25/124/78 122/124/78 121/123/77 
f 25/124/78 23/125/79 123/125/79 122/124/78 
f 23/125/79 21/126/80 124/126/80 123/125/79 
f 21/126/80 19/127/81 125/127/81 124/126/80 
f 19/127/81 17/128/82 126/128/82 125/127/81 
f 17/128/82 15/129/83 127/129/83 126/128/82 
f 15/129/83 13/130/84 128/130/84 127/129/83 
f 13/130/84 11/131/85 129/131/85 128/130/84 
f 11/131/85 9/132/86 130/132/86 129/131/85 
f 9/132/86 7/133/87 131/133/87 130/132/86 
f 7/133/87 5/134/88 132/134/88 131/133/87 
f 5/134/88 2/91/45 90/91/45 132/134/88 
f 4/135/89 3/136/89 133/136/89 134/135/89 
f 3/136/89 6/137/89 135/137/89 133/136/89 
f 6/137/89 8/138/89 136/138/89 135/137/89 
f 8/138/89 10/139/89 137/139/89 136/138/89 
f 10/139/89 12/140/89 138/140/89 137/139/89 
f 12/140/89 14/141/89 139/141/89 138/140/89 
f 14/141/89 16/142/89 140/142/89 139/141/89 
f 16/142/89 18/143/89 141/143/89 140/142/89 
f 18/143/89 20/144/89 142/144/89 141/143/89 
f 20/144/89 22/145/89 143/145/89 142/144/89 
f 22/145/89 24/146/89 144/146/89 143/145/89 
f 24/146/89 26/147/89 145/147/89 144/146/89 
f 26/147/89 28/148/89 146/148/89 145/147/89 
f 28/148/89 30/149/89 147/149/89 146/148/89 
f 30/149/89 32/150/89 148/150/89 147/149/89 
f 32/150/89 34/151/89 149/151/89 148/150/89 
f 34/151/89 36/152/89 150/152/89 149/151/89 
f 36/152/89 38/153/89 151/153/89 150/152/89 
f 38/153/89 40/154/89 152/154/89 151/153/89 
f 40/154/89 42/155/89 153/155/89 152/154/89 
f 42/155/89 44/156/89 154/156/89 153/155/89 
f 44/156/89 46/157/89 155/157/89 154/156/89 
f 46/157/89 48/158/89 156/158/89 155/157/89 
f 48/158/89 50/159/89 157/159/89 156/158/89 
f 50/159/89 52/160/89 158/160/89 157/159/89 
f 52/160/89 54/161/89 159/161/89 158/160/89 
f 54/161/89 56/162/89 160/162/89 159/161/89 
f 56/162/89 58/163/89 161/163/89 160/162/89 
f 58/163/89 60/164/89 162/164/89 161/163/89 
f 60/164/89 62/165/89 163/165/89 162/164/89 
f 62/165/89 64/166/89 164/166/89 163/165/89 
f 64/166/89 66/167/89 165/167/89 164/166/89 
f 66/167/89 68/168/89 166/168/89 165/167/89 
f 68/168/89 70/169/89 167/169/89 166/168/89 
f 70/169/89 72/170/89 168/170/89 167/169/89 
f 72/170/89 74/171/89 169/171/89 168/170/89 
f 74/171/89 76/172/89 170/172/89 169/171/89 
f 76/172/89 78/173/89 171/173/89 170/172/89 
f 78/173/89 80/174/89 172/174/89 171/173/89 
f 80/174/89 82/175/89 173/175/89 172/174/89 
f 82/175/89 84/176/89 174/176/89 173/175/89 
f 84/176/89 86/177/89 175/177/89 174/176/89 
f 86/177/89 88/178/89 176/178/89 175/177/89 
f 88/178/89 4/135/89 134/135/89 176/178/89 
s 1
f 134/135/90 133/136/24 90/136/24 89/135/91 
f 133/136/24 135/137/25 132/137/25 90/136/24 
f 135/137/25 136/138/26 131/138/26 132/137/25 
f 136/138/26 137/139/27 130/139/27 131/138/26 
f 137/139/27 138/140/92 129/140/92 130/139/27 
f 138/140/92 139/141/29 128/141/29 129/140/92 
f 139/141/29 140/142/30 127/142/30 128/141/29 
f 140/142/30 141/143/31 126/143/31 127/142/30 
f 141/143/31 142/144/32 125/144/32 126/143/31 
f 142/144/32 143/145/93 124/145/33 125/144/32 
f 143/145/93 144/146/94 123/146/95 124/145/33 
f 144/146/94 145/147/35 122/147/35 123/146/95 
f 145/147/35 146/148/36 121/148/36 122/147/35 
f 146/148/36 147/149/37 120/149/37 121/148/36 
f 147/149/37 148/150/38 119/150/38 120/149/37 
f 148/150/38 149/151/96 118/151/39 119/150/38 
f 149/151/96 150/152/97 117/152/97 118/151/39 
f 150/152/97 151/153/41 116/153/98 117/152/97 
f 151/153/41 152/154/42 115/154/42 116/153/98 
f 152/154/42 153/155/43 114/155/43 115/154/42 
f 153/155/43 154/156/99 113/156/44 114/155/43 
f 154/156/99 155/157/100 112/157/101 113/156/44 
f 155/157/100 156/158/2 111/158/2 112/157/101 
f 156/158/2 157/159/3 110/159/3 111/158/2 
f 157/159/3 158/160/4 109/160/4 110/159/3 
f 158/160/4 159/161/5 108/161/5 109/160/4 
f 159/161/5 160/162/102 107/162/102 108/161/5 
f 160/162/102 161/163/7 106/163/7 107/162/102 
f 161/163/7 162/164/103 105/164/8 106/163/7 
f 162/164/103 163/165/104 104/165/104 105/164/8 
f 163/165/104 164/166/10 103/166/105 104/165/104 
f 164/166/10 165/167/106 102/167/11 103/166/105 
f 165/167/106 166/168/107 101/168/12 102/167/11 
f 166/168/107 167/169/13 100/169/13 101/168/12 
f 167/169/13 168/170/14 99/170/14 100/169/13 
f 168/170/14 169/171/108 98/171/15 99/170/14 
f 169/171/108 170/172/109 97/172/109 98/171/15 
f 170/172/109 171/173/17 96/173/110 97/172/109 
f 171/173/17 172/174/111 95/174/111 96/173/110 
f 172/174/111 173/175/19 94/175/19 95/174/111 
f 173/175/19 174/176/20 93/176/20 94/175/19 
f 174/176/20 175/177/21 92/177/21 93/176/20 
f 175/177/21 176/178/112 91/178/22 92/177/21 
f 176/178/112 134/135/90 89/135/91 91/178/22 
# 176 polygons

